<?xml version="1.0" standalone="no"?>
<!DOCTYPE svg PUBLIC "-//W3C//DTD SVG 20010904//EN"
 "http://www.w3.org/TR/2001/REC-SVG-20010904/DTD/svg10.dtd">
<svg version="1.0" xmlns="http://www.w3.org/2000/svg"
 width="372.000000pt" height="372.000000pt" viewBox="0 0 372.000000 372.000000"
 preserveAspectRatio="xMidYMid meet">
<metadata>
Created by potrace 1.14, written by Peter Selinger 2001-2017
</metadata>
<g transform="translate(0.000000,372.000000) scale(0.100000,-0.100000)"
fill="#000000" stroke="none">
<path d="M3175 2149 c-94 -46 -171 -166 -121 -185 20 -8 105 31 137 62 37 36
66 101 53 122 -15 23 -25 23 -69 1z m5 -58 c0 -33 -46 -95 -62 -85 -15 10 -1
65 24 91 29 31 38 29 38 -6z"/>
<path d="M818 2104 c-12 -12 -14 -24 -8 -45 5 -16 6 -45 3 -64 -7 -43 -1 -44
40 -4 18 16 51 44 75 61 23 17 42 35 42 39 0 9 -43 -7 -75 -28 -33 -22 -45
-16 -45 22 0 39 -8 43 -32 19z"/>
<path d="M1917 2093 c-12 -14 -14 -31 -8 -78 6 -54 8 -58 19 -39 16 29 28 134
15 134 -5 0 -17 -8 -26 -17z"/>
<path d="M2034 2057 c-62 -34 -82 -51 -93 -80 -15 -40 0 -34 71 28 34 30 66
55 70 55 5 0 8 5 8 10 0 14 -10 12 -56 -13z"/>
<path d="M1522 2038 c-65 -11 -156 -56 -193 -95 -24 -25 -28 -33 -14 -28 52
22 87 11 336 -108 148 -71 327 -132 449 -153 121 -21 305 -15 368 11 58 24 45
32 -20 12 -116 -35 -253 -25 -423 29 -114 36 -150 61 -235 160 -140 163 -143
165 -185 173 -22 4 -59 4 -83 -1z m116 -90 c28 -29 61 -66 73 -82 l22 -28 -24
7 c-49 15 -269 118 -269 126 0 17 37 28 91 29 56 0 58 -1 107 -52z"/>
<path d="M383 2020 c-48 -11 -133 -55 -173 -89 -34 -29 -34 -30 -10 -30 14 0
54 6 90 13 l65 13 -35 10 -35 10 35 18 c22 12 56 19 90 19 50 0 88 -14 395
-153 187 -84 363 -163 390 -176 l50 -23 -70 -1 c-106 -1 -178 21 -362 110
-182 88 -266 119 -321 119 -54 0 354 -203 463 -231 103 -25 251 -32 330 -15
121 27 153 54 63 53 -46 -1 -79 11 -238 82 -677 306 -640 292 -727 271z"/>
<path d="M2570 2007 c-62 -26 -150 -83 -150 -97 0 -6 43 -10 99 -10 116 0 142
-8 194 -58 39 -38 43 -38 28 1 -15 39 -77 79 -150 98 l-66 16 30 13 c17 7 53
15 81 17 47 5 64 -1 210 -67 87 -40 175 -78 194 -85 19 -7 96 -41 170 -75 275
-126 341 -143 391 -100 l24 20 -35 -5 c-43 -8 -58 -2 -382 143 -460 207 -458
206 -523 209 -45 3 -73 -2 -115 -20z"/>
<path d="M933 1930 c-38 -15 -27 -31 15 -24 55 9 189 -47 198 -82 5 -21 11
-24 38 -19 24 5 68 -10 206 -70 96 -42 211 -93 255 -114 108 -50 219 -85 248
-77 14 3 35 15 48 26 l24 20 -45 -6 c-50 -7 -29 -15 -495 195 -140 63 -203 96
-210 111 -7 15 -17 20 -34 17 -13 -3 -49 4 -79 14 -58 20 -132 24 -169 9z"/>
<path d="M2048 1929 c-31 -17 -20 -30 20 -23 54 8 188 -49 197 -84 5 -20 10
-23 37 -17 24 6 52 -2 132 -38 561 -250 550 -246 614 -207 41 25 40 30 -2 23
-19 -3 -51 0 -72 7 -36 12 -332 143 -520 230 -45 21 -91 41 -103 45 -12 4 -21
15 -21 27 0 17 -5 19 -27 15 -14 -3 -51 4 -81 14 -60 21 -146 25 -174 8z"/>
</g>
</svg>
